# xmcd
#
# Track frame offsets: 
#        150
#        17345
#        37410
#        53929
#        73038
#        95792
#        112180
#        126803
#        146721
#        164479
#        185387
#        199667
#        215705
#        233779
#        254324
#        271915
#        292676
#        313201
#
# Disc length: 4591 seconds
#
# Revision: 0
# Processed by: cddbd v1.5.2PL0 Copyright (c) Steve Scherf et al.
# Submitted via: ExactAudioCopy v0.99pb5
#
DISCID=1a11ed12
DTITLE=Various Artist - Forever Love No.1 CD 2
DYEAR=2003
DGENRE=Pop
TTITLE0=Glenn Medeirors - Nothing's Gonna Change My Love For You
TTITLE1=Lionel Richie and Diana Ross - Endless Love
TTITLE2=Leo Sayer - More Than I Can Say
TTITLE3=Berlin - Take My Breath Away
TTITLE4=Wham - Careless Whisper
TTITLE5=Righteous Brothers - Unchained Melody
TTITLE6=Paul Simon and Art Garfunkel - The Sound Of Silence
TTITLE7=Stevie WOnder - I Just Called To Say I Love You
TTITLE8=Barbara Streisand - Woman In Love
TTITLE9=Bertie Higgins - Casablanca
TTITLE10=Jason Donovan - Rhythm Of The Rain
TTITLE11=Mariah Carey - Without You
TTITLE12=Elton John - Can You Feel The Love Tonight
TTITLE13=Whitney Houston - I Will Always Love You
TTITLE14=Micheal Bolton - When A Man Love A Woman
TTITLE15=Joy Enriques - How Can I Not Love You
TTITLE16=Eric Clapton - Tears In Heaven
TTITLE17=Eagles - Hotel California
EXTD=
EXTT0=
EXTT1=
EXTT2=
EXTT3=
EXTT4=
EXTT5=
EXTT6=
EXTT7=
EXTT8=
EXTT9=
EXTT10=
EXTT11=
EXTT12=
EXTT13=
EXTT14=
EXTT15=
EXTT16=
EXTT17=
PLAYORDER=
